<svg width="160" height="162" viewBox="0 0 160 162" fill="none" xmlns="http://www.w3.org/2000/svg">
<path fill-rule="evenodd" clip-rule="evenodd" d="M156.503 83.1684C156.362 83.287 156.316 82.9743 156.222 82.8908C156.27 82.4811 156.303 82.004 156.476 82.0472C156.484 82.4218 156.492 82.7937 156.503 83.1684Z" fill="#EBE2D7"/>
<path fill-rule="evenodd" clip-rule="evenodd" d="M153.422 46.6132C152.746 45.3572 152.981 45.1848 152.424 44.0743C151.938 43.0555 151.814 43.2954 151.497 42.8615C148.422 36.9347 144.386 31.7384 140.343 27.9758C140.549 27.9812 140.143 27.5769 139.822 27.2293C140.084 27.0595 140.565 27.2535 141.159 27.6416C143.481 30.0673 145.605 32.5092 147.503 35.0939C147.978 35.738 148.473 36.3714 148.935 37.0264C149.389 37.6867 149.843 38.347 150.3 39.01C150.53 39.3415 150.759 39.6731 150.989 40.0046C151.214 40.3388 151.424 40.6864 151.643 41.026C152.084 41.7079 152.527 42.3952 152.973 43.0852C152.059 42.972 154.165 46.4946 153.422 46.6132Z" fill="#EBE2D7"/>
<path fill-rule="evenodd" clip-rule="evenodd" d="M101.322 3.10167C101.119 2.98308 100.751 2.84024 100.435 2.72704C100.122 2.61384 99.8729 2.50064 99.9243 2.39014C100.786 2.60845 101.241 2.87797 101.322 3.10167Z" fill="#EBE2D7"/>
<path fill-rule="evenodd" clip-rule="evenodd" d="M40.2703 12.9902C41.3892 12.4269 39.4568 13.6694 40.3703 13.1681C40.2622 13.4053 38.9297 14.0306 39.0243 13.7826C39.3784 13.5373 40.3865 13.0953 40.2703 12.9902Z" fill="#EBE2D7"/>
<path fill-rule="evenodd" clip-rule="evenodd" d="M14.0946 35.0132C14.2865 35.0509 14.2676 35.2773 13.7973 35.9026C13.6027 35.8649 13.6189 35.6385 14.0946 35.0132Z" fill="#EBE2D7"/>
<path fill-rule="evenodd" clip-rule="evenodd" d="M0.624324 80.8936C0.343243 82.6105 0.789189 82.4137 0.437838 83.4972C0.521622 84.2788 0.575676 85.1224 0.610811 85.9984C0.624324 86.435 0.640541 86.8824 0.654054 87.3325C0.683784 87.7826 0.713513 88.2354 0.743243 88.6882C0.8 89.5965 0.843243 90.5074 0.913513 91.3861C1.01351 92.262 1.12162 93.111 1.24324 93.8953C1.3027 94.2834 1.37568 94.6635 1.45135 95.0381C1.52973 95.4127 1.64054 95.7793 1.74054 96.1485C1.94324 96.8843 2.15135 97.6228 2.33243 98.4071C3.80541 104.62 5.98919 111.387 8.78919 117.179C9.21622 118.001 9.64595 118.829 10.073 119.653C10.2919 120.063 10.4892 120.481 10.7243 120.877C10.9541 121.276 11.1811 121.672 11.4054 122.066C11.627 122.459 11.8486 122.85 12.0649 123.235C12.2784 123.621 12.4865 124.006 12.7135 124.367C13.1541 125.1 13.5703 125.817 13.9514 126.505C13.3784 126.095 12.7541 125.427 12.1054 124.599C12.0243 124.494 11.9432 124.389 11.8595 124.281C11.7838 124.168 11.7081 124.055 11.6297 123.939C11.4757 123.707 11.3216 123.467 11.1649 123.219C10.8541 122.723 10.5432 122.2 10.2324 121.661C10.0811 121.389 9.91621 121.122 9.77567 120.839C9.63513 120.556 9.49459 120.273 9.35676 119.988C9.08378 119.416 8.80811 118.845 8.53784 118.282C8.40541 117.999 8.26757 117.724 8.14865 117.443C8.03243 117.163 7.91622 116.885 7.8027 116.613C7.57297 116.072 7.35405 115.551 7.14865 115.064C6.95135 114.694 6.76486 114.365 6.58108 114.077C6.41081 113.783 6.25135 113.525 6.09459 113.301C4.1054 108.129 2.57838 103.601 1.5027 99.1753C0.47027 94.7524 -0.0783784 90.4239 0.218919 85.8259C0.105405 85.0497 0.0810811 84.3192 0.0567568 83.57C0.0351351 83.1953 0.0540541 82.8126 0.0486486 82.4164C0.0459459 82.0202 0.0324324 81.6079 0 81.1685C0.0378378 80.9125 0.072973 80.6511 0.151351 80.5918C0.259459 80.1794 0.483784 80.6645 0.624324 80.8936Z" fill="#EBE2D7"/>
<path fill-rule="evenodd" clip-rule="evenodd" d="M10.7865 117.785C11.3 118.578 12.246 120.316 11.9162 120.386C12.2676 120.804 12.5351 121.3 12.8135 121.844C12.9514 122.117 13.0973 122.397 13.246 122.691C13.4 122.982 13.5622 123.281 13.773 123.569C15.5487 127.13 18.2189 131.008 21.4433 134.757C24.6676 138.514 28.4622 142.115 32.3622 145.358C32.4703 145.845 31.673 145.204 31.2054 144.972C29.646 143.673 28.2919 142.552 26.9108 141.476C26.2433 140.916 25.5946 140.336 24.9378 139.727C24.6108 139.42 24.2811 139.11 23.9595 138.773C23.6487 138.428 23.3351 138.07 23.0243 137.69C22.5514 137.272 22.0865 136.833 21.6243 136.374C21.1622 135.919 20.746 135.407 20.3108 134.905C19.8838 134.399 19.4622 133.879 19.0487 133.356C18.646 132.822 18.2676 132.264 17.8865 131.717C17.5081 131.165 17.1324 130.617 16.7676 130.068C16.4243 129.504 16.0838 128.946 15.7487 128.394C15.4135 127.847 15.0811 127.305 14.7568 126.777C14.4514 126.235 14.1487 125.709 13.8433 125.205C13.6622 124.782 13.4216 124.281 13.1379 123.728C12.8622 123.171 12.5676 122.543 12.2324 121.896C11.9054 121.243 11.5216 120.58 11.1757 119.885C10.8297 119.19 10.4703 118.489 10.1054 117.812C10.0514 117.508 10.5108 117.597 10.7865 117.785Z" fill="#EBE2D7"/>
<path fill-rule="evenodd" clip-rule="evenodd" d="M27.5784 139.568L27.7189 139.417C28.1811 139.805 28.6378 140.188 29.0892 140.568C29.5378 140.953 29.973 141.347 30.4081 141.74C30.627 141.934 30.8378 142.134 31.0622 142.32C31.2892 142.5 31.5162 142.681 31.7432 142.861C32.2 143.217 32.6622 143.56 33.1378 143.878C32.6405 143.856 31.5054 143.023 30.8 142.74C30.1513 142.136 29.5622 141.614 29.0189 141.118C28.4784 140.616 27.973 140.15 27.5784 139.568Z" fill="#EBE2D7"/>
<path fill-rule="evenodd" clip-rule="evenodd" d="M32.9189 146.047C32.9459 145.659 35.1189 147.344 35.5784 147.764C34.6486 147.371 33.9297 146.603 32.9189 146.047Z" fill="#EBE2D7"/>
<path fill-rule="evenodd" clip-rule="evenodd" d="M88.0352 161.443C88.3811 161.149 90.1379 160.354 91.4162 160.602C92.0892 160.394 92.7892 160.168 93.5271 159.99C94.2622 159.799 95.0379 159.656 95.8298 159.467C96.6216 159.27 97.4406 159.068 98.2838 158.861C98.7027 158.75 99.1352 158.659 99.5595 158.518C99.9838 158.384 100.416 158.243 100.849 158.095C100.662 158.438 102.408 157.901 102.816 157.68C102.635 157.492 101.8 158.157 101.949 157.785C103.076 157.424 104.173 157.009 105.192 156.664C105.7 156.486 106.184 156.316 106.63 156.141C107.07 155.95 107.473 155.761 107.827 155.57C107.943 155.643 107.619 155.78 107.638 155.864C107.708 155.923 108.141 155.729 108.459 155.616C108.419 155.775 106.165 156.626 107.105 156.074C106.627 156.257 106.573 156.37 106.051 156.529C106.573 156.403 106.527 156.521 106.554 156.594C106.584 156.667 106.695 156.705 107.514 156.354C107.489 156.47 106.724 156.691 106.757 156.796C106.257 156.899 106.176 156.74 105.824 156.75C105.435 156.952 104.416 157.303 103.611 157.605C103.411 157.683 103.222 157.753 103.057 157.818C102.892 157.877 102.754 157.931 102.657 157.977C102.459 158.071 102.424 158.136 102.654 158.155C102.119 158.421 101.173 158.559 100.246 158.721C99.3243 158.898 98.4 159.009 97.9081 159.349C97.0298 159.521 96.2595 159.712 95.5244 159.901C94.7838 160.063 94.0838 160.238 93.3514 160.421C91.8973 160.817 90.2946 161.119 88.0352 161.443Z" fill="#EBE2D7"/>
<path fill-rule="evenodd" clip-rule="evenodd" d="M108.886 155.149C109.443 154.985 110.049 154.912 109.549 155.257C108.962 155.478 108.914 155.322 108.886 155.149Z" fill="#EBE2D7"/>
<path fill-rule="evenodd" clip-rule="evenodd" d="M110.649 154.201C111.451 153.804 111.408 154.06 112.03 153.802C111.724 154.141 110.592 154.419 110.649 154.201Z" fill="#EBE2D7"/>
<path fill-rule="evenodd" clip-rule="evenodd" d="M114.473 152.953C114.47 152.667 115.932 152.236 116.7 151.662C116.719 151.904 115.284 152.505 114.473 152.953Z" fill="#EBE2D7"/>
<path fill-rule="evenodd" clip-rule="evenodd" d="M118.192 150.82C118.557 150.481 118.662 150.219 119.538 149.731C119.354 150.017 118.916 150.376 118.192 150.82Z" fill="#EBE2D7"/>
<path fill-rule="evenodd" clip-rule="evenodd" d="M143.349 132.73C143.981 132.014 144.454 131.633 144.773 131.585C144.33 131.903 143.605 132.819 143.349 132.73Z" fill="#EBE2D7"/>
<path fill-rule="evenodd" clip-rule="evenodd" d="M94.7864 149.398C94.5189 149.438 94.2513 149.479 93.981 149.519C93.7108 149.562 93.4405 149.605 93.1648 149.627C92.6162 149.686 92.0675 149.751 91.5243 149.832C90.981 149.907 90.4486 150.02 89.9243 150.109C89.3973 150.195 88.8864 150.303 88.3946 150.441C87.8162 150.484 87.2243 150.54 86.6189 150.57C86.0108 150.584 85.3946 150.597 84.7675 150.61C84.454 150.619 84.1405 150.627 83.8243 150.635L83.3486 150.648C83.1891 150.651 83.0297 150.643 82.8702 150.64C82.2324 150.629 81.5919 150.619 80.9486 150.608C78.381 150.578 75.8243 150.433 73.4837 150.419C73.281 150.373 73.0756 150.336 72.8675 150.301C72.6594 150.257 72.4486 150.217 72.2351 150.182C71.8081 150.112 71.3702 150.058 70.9324 150.009C70.4919 149.961 70.0513 149.91 69.6135 149.861C69.1783 149.797 68.754 149.702 68.3432 149.597C64.4324 148.632 60.4946 147.64 56.5946 146.449C52.7027 145.247 48.8486 143.846 45.1946 142.174L44.4324 141.738C44.1756 141.595 43.9378 141.425 43.6864 141.272C43.1486 140.986 42.6054 140.711 42.0567 140.441C41.7837 140.304 41.5 140.177 41.2297 140.029C40.9594 139.881 40.6864 139.73 40.4135 139.579C39.8648 139.277 39.3054 138.967 38.7378 138.644C38.4486 138.487 38.1783 138.301 37.8973 138.118C37.6216 137.93 37.3405 137.741 37.054 137.547C36.7648 137.342 36.4702 137.137 36.1729 136.93C36.0243 136.824 35.8783 136.717 35.727 136.612C35.581 136.501 35.4405 136.382 35.2973 136.267C34.7243 135.8 34.1432 135.323 33.5621 134.833L33.1243 134.463L32.7054 134.07C32.427 133.806 32.1459 133.539 31.8675 133.27C31.3135 132.728 30.7324 132.205 30.2135 131.615C29.6837 131.038 29.154 130.461 28.627 129.884C28.1108 129.297 27.6324 128.68 27.1378 128.087C26.8946 127.787 26.6513 127.488 26.4081 127.192C26.1756 126.887 25.954 126.577 25.727 126.273C25.2783 125.664 24.8351 125.06 24.4 124.47C24.4702 124.386 24.6081 124.354 24.2729 123.936C23.5216 122.718 22.7594 121.535 22.1297 120.276C21.8054 119.653 21.4675 119.044 21.1567 118.416C20.8594 117.783 20.5648 117.149 20.2675 116.513C20.1189 116.198 19.9675 115.88 19.8189 115.565C19.6837 115.241 19.5459 114.915 19.4081 114.592C19.1324 113.942 18.8486 113.295 18.5567 112.646C18.2919 111.983 18.0297 111.314 17.7486 110.646C17.6054 110.312 17.4621 109.977 17.3189 109.641C17.1783 109.301 17.0567 108.953 16.9189 108.611C16.654 107.937 16.3432 107.307 16.0594 106.668C15.7919 106.024 15.581 105.361 15.4567 104.66C15.2837 104.32 15.1054 103.956 14.9297 103.574C14.7513 103.191 14.6108 102.779 14.4486 102.364C14.2919 101.946 14.1351 101.517 13.9756 101.086C13.8189 100.655 13.6459 100.224 13.5216 99.7869C13.3756 98.9433 13.1756 97.9838 12.9378 96.9731C12.7513 95.9516 12.5405 94.8816 12.3027 93.8278C12.0973 92.7713 11.9162 91.7255 11.6946 90.7741C11.6432 90.5369 11.5783 90.3052 11.5378 90.0761C11.4919 89.8497 11.4486 89.6286 11.4081 89.4157C11.3189 88.9899 11.227 88.5964 11.1324 88.246C11.1405 87.7447 11.1216 87.2623 11.081 86.7852C11.0621 86.3082 11.0351 85.8365 10.9946 85.3648C10.9513 84.8932 10.9108 84.4188 10.8675 83.9364C10.8486 83.6938 10.8297 83.4512 10.8108 83.2033C10.8054 82.9553 10.8054 82.7073 10.8108 82.4513C10.8351 81.0417 10.8189 79.5755 10.9567 78.0716C10.981 77.6943 11.0081 77.3169 11.0324 76.9369C11.0621 76.5569 11.0729 76.1715 11.1297 75.7887C11.2216 75.0206 11.3162 74.2444 11.4135 73.4628C11.8621 70.3417 12.4756 67.1182 13.4189 63.9756L13.7513 62.7897C13.8729 62.3989 14.0108 62.0108 14.1405 61.6227C14.4054 60.8465 14.6513 60.0676 14.9297 59.2994C15.5324 57.7847 16.0864 56.2592 16.7729 54.8173C17.3946 53.3457 18.1405 51.9631 18.8243 50.5912C19.1756 49.9093 19.5702 49.2625 19.9324 48.6102C20.3 47.9607 20.6513 47.3138 21.0513 46.7128C21.2378 46.2088 21.4567 45.8018 21.6973 45.3868C21.9378 44.9717 22.1864 44.5378 22.4891 44.0149C23.0351 43.3977 23.6405 42.608 24.2892 41.7374C24.9783 40.8965 25.681 39.9559 26.3973 39.0207C27.1486 38.1151 27.8621 37.1718 28.554 36.3228C29.2621 35.4899 29.9027 34.7083 30.4189 34.0561C31.2189 33.5224 32.1513 32.6627 33.1675 31.7193C33.6946 31.2692 34.2432 30.7976 34.7946 30.3259C35.0729 30.0914 35.3486 29.8543 35.6324 29.6333C35.9243 29.4203 36.2162 29.2101 36.5081 29.0107C38.3162 27.7224 40.1837 26.938 41.3459 25.7225C43.4648 24.4396 45.6081 23.0596 47.9432 21.863C48.527 21.5638 49.1162 21.2646 49.7081 20.9628C50.3135 20.6879 50.9297 20.4291 51.5513 20.165C52.781 19.6152 54.0891 19.2082 55.4135 18.8093C55.6837 18.7311 55.9486 18.6449 56.2243 18.5802C56.5 18.5182 56.7756 18.4562 57.0513 18.3942C57.6027 18.2729 58.1567 18.1517 58.7108 18.0304C58.9891 17.9738 59.2621 17.901 59.5459 17.8525C59.827 17.804 60.1108 17.7555 60.3918 17.7069C60.9567 17.6072 61.5216 17.4994 62.0864 17.3808C62.2729 17.3215 62.4594 17.2622 62.6432 17.2056C62.8297 17.149 63.0189 17.1086 63.2054 17.0601C63.581 16.9685 63.954 16.8795 64.3243 16.7879C64.6973 16.7016 65.0675 16.6127 65.4405 16.5264L65.9973 16.3971L66.5594 16.2947C67.3108 16.1599 68.0648 16.0251 68.8243 15.8769C69.0135 15.8392 69.2054 15.8014 69.3973 15.7637C69.5891 15.7341 69.7837 15.7044 69.9783 15.6748C70.3675 15.6155 70.7567 15.5508 71.1513 15.4807C71.181 15.3972 71.0837 15.2947 71.3756 15.2462C71.8459 15.222 72.3756 15.1276 72.9486 15.0414C73.5243 14.9659 74.1432 14.8689 74.7837 14.7692C75.1027 14.7233 75.427 14.6748 75.754 14.6263L76.2432 14.5616L76.7351 14.532C77.3892 14.4996 78.0405 14.4916 78.6567 14.5374C79.1486 14.4727 79.6351 14.373 80.1216 14.3272C80.6108 14.2732 81.0973 14.2166 81.5919 14.1627C82.0891 14.1088 82.5919 14.0522 83.1081 13.9956C83.627 13.939 84.154 13.9363 84.7054 13.9121C85.8081 13.8824 86.9973 13.842 88.3081 13.9768C88.9648 14.0307 89.6567 14.0981 90.3864 14.1843C91.1108 14.2975 91.8729 14.4484 92.6783 14.6102C93.0135 14.5805 93.3918 14.5724 93.8081 14.5832C94.2216 14.5994 94.6675 14.6641 95.1405 14.7287C95.6135 14.7961 96.1135 14.8797 96.627 14.9713C96.8837 15.0198 97.1459 15.0683 97.4108 15.1168C97.6729 15.1815 97.9351 15.2462 98.2027 15.3136C98.7351 15.4511 99.2729 15.5885 99.8108 15.726C100.349 15.8634 100.886 15.9955 101.397 16.168C102.43 16.4914 103.424 16.769 104.297 17.0062C105.559 17.583 107.262 18.2487 108.778 19.095C110.327 19.8685 111.689 20.7903 112.454 21.4722C113.232 21.8872 113.927 22.3831 114.703 22.8521C115.089 23.092 115.489 23.3345 115.916 23.5825C116.335 23.8439 116.773 24.1296 117.251 24.418C117.77 24.8385 117.919 25.1376 118.608 25.6093C118.968 25.7171 119.427 25.9732 119.978 26.3235C120.33 26.6443 120.711 26.9758 121.122 27.3208C121.224 27.407 121.33 27.4933 121.435 27.5795C121.538 27.6711 121.64 27.7628 121.743 27.8571C121.954 28.0431 122.168 28.2317 122.386 28.4231C122.827 28.8058 123.286 29.1912 123.759 29.582C124.232 29.9755 124.686 30.4068 125.168 30.8192C125.646 31.2315 126.13 31.6493 126.611 32.067C127.078 32.501 127.546 32.9295 128.013 33.3473C128.968 34.1639 129.824 35.0264 130.659 35.7837C130.74 36.0613 131.054 36.3524 131.357 36.6651C131.654 36.9858 131.957 37.3119 132.046 37.6192C134.654 40.3279 137.286 43.3088 139.481 46.6373C141.686 49.9498 143.497 53.5694 144.562 57.2915C144.403 58.0327 144.422 58.9275 144.373 59.7253C144.297 60.5339 144.178 61.2346 143.811 61.5796C143.84 61.8976 143.938 62.31 144.008 62.6873C144.043 62.876 144.073 63.0539 144.084 63.2075C144.092 63.3611 144.076 63.4905 144.038 63.5767C143.8 63.5255 143.876 63.9891 143.776 64.167C143.835 64.7141 143.924 65.3852 144.04 66.1156C144.07 66.2989 144.1 66.4849 144.132 66.6735C144.157 66.8649 144.181 67.059 144.205 67.2557C144.257 67.6465 144.316 68.0454 144.381 68.4443C144.446 68.8432 144.519 69.2394 144.6 69.6302C144.689 70.0183 144.735 70.4091 144.816 70.781C144.968 71.5249 145.157 72.2095 145.389 72.7755C145.613 73.0396 145.813 73.3253 146.013 73.576C146.213 73.8239 146.411 74.0342 146.597 74.1474C146.97 74.3738 147.3 74.2201 147.532 73.1986C148.254 73.2364 148.932 72.4143 149.557 72.3389C149.876 72.3011 150.189 72.4521 150.484 73.0073C150.776 73.5625 151.084 74.522 151.346 76.0933C152.049 77.0178 152.535 78.1066 153.378 77.5191C153.511 76.6997 153.74 76.0664 153.905 75.3279C154.062 74.5921 154.2 73.7458 154.216 72.5006C154.411 72.9938 154.392 72.5087 154.554 72.4521C154.522 71.8672 154.376 71.1503 154.292 70.5573C154.208 69.9644 154.181 69.4927 154.324 69.4065C154.784 72.3011 155.297 72.6192 155.686 74.8292C155.935 75.4276 156.14 75.8157 156.365 76.0879C156.586 76.3601 156.811 76.5138 157.03 76.6485C157.468 76.918 157.886 77.104 158.23 78.0177C158.213 78.3923 158.195 78.6106 158.195 78.8424C158.2 79.0715 158.216 79.3141 158.265 79.7399C158.735 80.2089 158.846 79.1092 159.178 80.5727C159.435 80.0445 159.408 79.2925 159.349 78.236C159.681 77.7805 159.851 76.7968 159.949 75.5947C160.011 74.9937 159.997 74.3441 159.997 73.6757C159.995 73.0073 159.989 72.3281 159.986 71.6759C159.957 71.4387 159.927 71.2015 159.9 70.9697C159.862 70.7379 159.827 70.5088 159.789 70.2824C159.719 69.8269 159.649 69.3822 159.581 68.9456C159.519 68.5063 159.457 68.0751 159.395 67.6519C159.338 67.2288 159.284 66.811 159.203 66.404C159.062 65.5847 158.927 64.7923 158.795 64.0134C158.73 63.6253 158.67 63.2371 158.6 62.8544C158.519 62.4744 158.44 62.0998 158.362 61.7251C158.2 60.9759 158.04 60.2347 157.881 59.4962C157.838 59.3129 157.8 59.1269 157.754 58.9437L157.603 58.3965C157.497 58.0327 157.395 57.6661 157.289 57.2996C157.073 56.5665 156.851 55.828 156.597 55.0841C156.319 54.3483 156.022 53.6045 155.697 52.8444C155.862 52.68 155.711 52.0332 155.432 51.292C155.124 50.5616 154.689 49.7368 154.343 49.187C154.27 48.6129 154.751 48.7693 154.403 47.8286C153.886 47.1494 154.257 48.1979 154.095 48.3084C153.811 47.8286 153.324 47.047 152.905 46.2708C152.484 45.4946 152.113 44.7318 152.005 44.3195C151.362 43.5217 150.581 42.2846 149.776 40.9909C149.349 40.3575 148.903 39.7187 148.465 39.1123C148.022 38.5113 147.608 37.9264 147.165 37.4628C147.003 36.9912 146.749 36.4387 146.386 35.7891C146.016 35.145 145.568 34.3768 144.916 33.5575C144.7 33.6761 144.303 33.4092 143.93 33.1909C143.451 32.6627 143.011 32.156 142.603 31.6654C142.176 31.1884 141.773 30.7329 141.395 30.2855C141.016 29.8381 140.657 29.3988 140.308 28.9675C140.222 28.8597 140.135 28.7519 140.049 28.6441L139.778 28.3342C139.6 28.1266 139.422 27.9218 139.243 27.717C138.884 27.3073 138.527 26.9003 138.165 26.4853C137.797 26.0729 137.427 25.6524 137.005 25.2562C136.589 24.852 136.154 24.445 135.686 24.0272C135.454 23.8197 135.211 23.6095 134.962 23.3938C134.835 23.2887 134.708 23.1809 134.581 23.0731C134.446 22.9707 134.308 22.8683 134.17 22.7659C133.668 22.1972 132.978 21.5288 132.181 20.8064C131.789 20.4372 131.343 20.0868 130.886 19.7257C130.427 19.3645 129.951 18.9953 129.473 18.6179C129.203 18.3457 128.927 18.06 128.63 17.7851C128.327 17.5156 128.016 17.2407 127.692 16.9631C127.046 16.4106 126.362 15.8365 125.638 15.2705C124.149 14.1978 122.557 13.0442 120.808 12.0605C119.097 11.012 117.238 10.1334 115.405 9.27363C113.53 8.5028 111.681 7.74545 109.849 7.22527C109.424 6.8695 108.895 6.55147 108.305 6.25769C107.711 5.972 107.043 5.7456 106.359 5.51381C105.676 5.28472 104.97 5.0691 104.281 4.8481C103.584 4.65674 102.903 4.46268 102.278 4.24437C101.286 3.89669 100.3 3.51397 99.2918 3.2121C98.2864 2.89407 97.281 2.55717 96.2567 2.27687C95.227 2.02082 94.1891 1.78634 93.1351 1.59498C92.8729 1.54916 92.6081 1.49795 92.3432 1.46291C92.0756 1.43326 91.8081 1.40631 91.5405 1.38206C91.0054 1.33354 90.4648 1.2985 89.9216 1.27964C89.4243 1.21765 89.7324 1.44674 89.2972 1.40631C88.9054 1.35241 88.5 1.28503 88.0783 1.24999C87.6567 1.22034 87.2216 1.188 86.7783 1.15566C85.8891 1.09906 84.9648 1.04515 84.027 1.00203C83.0891 0.999335 82.1351 0.993945 81.1946 0.99125C80.7243 0.988554 80.2567 0.983164 79.7973 0.980469C79.3351 0.993945 78.881 1.00742 78.4351 1.0209C77.8 1.03707 77.1675 1.03707 76.5378 1.02898C76.2243 1.02629 75.9081 1.0209 75.5946 1.0182L74.654 1.04785C74.027 1.06941 73.4027 1.09636 72.7729 1.13679C72.4594 1.15835 72.1432 1.18261 71.8297 1.21226L71.3567 1.26077L70.8837 1.33893C69.4216 1.60037 68.1432 1.85372 67.0378 2.18523C65.9351 2.54639 64.9946 2.93719 64.1946 3.3846C63.9135 3.43311 63.6297 3.48971 63.3459 3.56518C63.0648 3.64873 62.781 3.74306 62.4973 3.84009C61.9297 4.03953 61.3567 4.26054 60.781 4.47077C59.627 4.86966 58.4946 5.32515 57.3324 5.45721C56.927 5.65666 57.0756 5.82646 56.2675 6.04477C55.7108 6.21996 55.6729 6.12024 55.3729 6.17414C55.4756 6.40862 55.7459 6.255 55.4973 6.56495C56.2648 6.24422 56.8513 6.07711 57.3973 5.87228C57.9432 5.67553 58.4567 5.47608 59.1027 5.16883C59.3 5.1257 59.4432 5.10953 59.6108 5.08258C59.781 5.06102 59.9729 5.02868 60.2729 4.94512C61.7946 4.38182 63.4459 3.72689 65.281 3.22558C65.7405 3.09351 66.2054 2.96145 66.681 2.82399C66.9189 2.75931 67.1594 2.69193 67.4027 2.62724C67.6459 2.57334 67.8946 2.51943 68.1432 2.46553C69.1378 2.24991 70.1729 2.04238 71.2432 1.84563C72.2783 1.68661 73.3297 1.59498 74.3675 1.50334C74.8864 1.46561 75.4027 1.40631 75.9108 1.39823C76.4216 1.38475 76.9243 1.37127 77.4162 1.3578C77.9081 1.34163 78.3919 1.32815 78.8621 1.31198C79.3324 1.2985 79.7891 1.26347 80.2297 1.26616C81.1108 1.25269 81.927 1.21495 82.6567 1.12601C83.3459 1.16913 83.0486 1.40901 83.5459 1.49256C83.9378 1.43596 84.3189 1.44135 84.6973 1.46561C85.0756 1.48986 85.4513 1.53299 85.8351 1.5815C86.6054 1.68392 87.4081 1.79442 88.3405 1.84024C89.6459 1.94266 90.7891 1.75399 92.281 1.92649C93.781 2.16097 94.9891 2.44936 96.2486 2.75122C97.5 3.0989 98.7999 3.47893 100.503 3.8886C101.14 4.30366 102.303 4.6756 103.322 5.00711C103.576 5.09067 103.819 5.17152 104.046 5.24699C104.27 5.32515 104.47 5.41679 104.643 5.49495C104.986 5.65666 105.208 5.79951 105.224 5.92349C104.87 5.93427 104.395 5.68631 103.881 5.4653C103.368 5.25238 102.822 5.03407 102.365 5.05293C102.916 5.28203 103.557 5.51381 103.722 5.72404C102.186 5.52729 101.089 5.57041 99.9162 5.57041C98.7297 5.62701 97.4702 5.61893 95.5973 5.36019C94.8243 5.20656 94.1027 5.07719 93.4243 4.96669C93.0864 4.91548 92.7567 4.86427 92.4405 4.81575C92.1243 4.76724 91.8162 4.72951 91.5162 4.71064C90.3189 4.619 89.281 4.58936 88.3459 4.59475C83.3486 3.85626 77.2243 3.6649 71.1918 4.42495C68.181 4.81036 65.1891 5.33862 62.3837 6.0825C61.6837 6.26847 60.9918 6.45175 60.3081 6.63233C59.627 6.82099 58.9702 7.05547 58.3216 7.26031C57.6729 7.47593 57.0378 7.68615 56.4135 7.89099C55.7973 8.11739 55.2027 8.35996 54.6216 8.58905C54.0216 8.73998 53.4486 8.89361 52.8837 9.05532C52.3189 9.21973 51.7756 9.43534 51.2108 9.64288C50.6486 9.85849 50.0756 10.0876 49.4729 10.3436C49.3216 10.4083 49.1702 10.473 49.0162 10.5404C48.8648 10.6158 48.7108 10.6913 48.554 10.7668C48.2432 10.9231 47.9216 11.0875 47.5864 11.2546C47.1459 11.3301 46.6459 11.4648 46.1054 11.6481C45.8351 11.7424 45.5513 11.8368 45.2675 11.9635C44.9837 12.0901 44.6918 12.2249 44.3946 12.3704C43.2054 12.9526 41.8973 13.6399 40.6675 14.443C40.0459 14.8339 39.427 15.222 38.8243 15.5993C38.2351 15.9955 37.6648 16.3836 37.127 16.7448C36.5864 17.1032 36.0729 17.4266 35.6 17.7043C35.1378 17.998 34.7189 18.2487 34.3459 18.4266C33.9432 19.1516 32.6919 20.0895 31.4486 21.0517C30.8162 21.5207 30.1621 21.9654 29.5756 22.3346C29.0054 22.7254 28.5054 23.0435 28.154 23.2267C28.0864 23.596 27.5864 24.1269 26.954 24.666C26.3243 25.2104 25.6027 25.8114 25.0216 26.2481C24.9486 26.1807 25.7594 25.2481 24.8783 26.0998C24.4486 26.4799 24.527 26.5634 24.3432 26.7979C24.1 26.9273 23.8324 27.0863 23.5891 27.2237C23.3513 27.3639 23.1324 27.4744 22.9702 27.4852C22.1864 28.2317 22.1891 28.4689 21.4081 29.2182C21.5108 28.9136 21.5405 28.6549 21.9648 28.1401C22.9864 26.9407 23.2891 26.9273 23.9567 26.4071C23.8108 26.3101 23.4 26.6416 23.9756 26.0109C24.5567 26.0459 25.2675 24.639 26.0729 24.3965C25.6864 24.7765 25.3973 25.0999 25.3189 25.2994C26.0891 24.4504 27.0837 23.5178 27.7919 22.809C27.5567 23.0138 27.2081 23.2699 27.527 22.9491C23.3675 26.0244 19.9027 29.5066 16.8837 33.2987C13.8648 37.0828 11.2783 41.1957 8.94591 45.7398C8.5432 46.1549 8.00807 47.0955 7.49455 47.9688C7.3405 48.3057 7.20807 48.6372 7.08374 48.9606C6.95942 49.2813 6.8378 49.5859 6.72428 49.8797C6.49726 50.4645 6.29996 50.9982 6.14591 51.4725C6.07023 51.7124 5.99996 51.9334 5.95131 52.1464C5.90807 52.3593 5.87564 52.5614 5.85672 52.7447C5.82158 53.1139 5.8405 53.4266 5.93509 53.6799C6.09455 53.2703 6.24861 52.8687 6.39996 52.4752C6.55401 52.079 6.73239 51.6989 6.89455 51.3108C7.22699 50.5346 7.56483 49.7503 7.92699 48.904C8.72699 47.2465 9.62158 45.3329 11.0837 42.9153C11.8108 41.9827 12.5297 41.3655 12.9973 41.3628C12.427 42.3277 11.8919 43.333 11.3135 44.3249C11.0216 44.8181 10.7297 45.314 10.4378 45.8099C10.1621 46.3139 9.88645 46.8206 9.61347 47.3246C9.3378 47.8286 9.06482 48.3326 8.79185 48.8312C8.52158 49.3326 8.29455 49.8527 8.05401 50.3594C7.81618 50.8688 7.58915 51.3755 7.37023 51.8795C7.26212 52.1329 7.15131 52.3808 7.05401 52.6342C6.96483 52.8902 6.87564 53.1463 6.78645 53.3969C6.58915 53.9791 6.58915 54.2486 6.38374 54.7904C6.22428 55.2054 6.07293 55.5962 5.92969 55.9655C5.78104 56.332 5.67293 56.6878 5.55131 57.0193C5.31347 57.685 5.09185 58.2807 4.87834 58.8386C4.66212 59.3965 4.45131 59.922 4.28104 60.4611C4.10266 60.9974 3.92428 61.5365 3.73239 62.1105C2.30537 66.6008 1.54861 71.6166 1.02969 76.282C0.932393 77.3088 0.513474 78.3142 0.735095 79.4488C0.891852 78.1767 1.08104 76.848 1.19726 75.6001C1.21347 75.4438 1.22699 75.2901 1.2405 75.1365C1.26212 74.9829 1.28104 74.8346 1.30266 74.6837C1.3405 74.3845 1.37564 74.0961 1.41077 73.8158C1.47564 73.2552 1.52428 72.7324 1.55131 72.2688C1.62158 71.9454 1.69455 71.5896 1.77023 71.215C1.85942 70.8403 1.95401 70.4441 2.05131 70.0291C2.2405 69.2016 2.4351 68.3068 2.62699 67.3932C2.85672 66.4903 3.08915 65.5685 3.31618 64.6818C3.42969 64.2398 3.52428 63.8004 3.64591 63.3827C3.76753 62.9649 3.88645 62.5633 3.99996 62.1833C4.28374 61.4448 4.54591 60.7252 4.79455 60.0218C5.06483 59.3237 5.3351 58.6445 5.58645 57.9653C5.71077 57.6257 5.83509 57.2888 5.95942 56.9519C6.08104 56.615 6.19726 56.2754 6.3378 55.9466C6.60266 55.2809 6.87023 54.6125 7.1405 53.936C7.27293 53.5964 7.40807 53.2541 7.54591 52.9091C7.68374 52.5641 7.84861 52.2272 7.99996 51.8795C8.31347 51.1869 8.63509 50.478 8.97023 49.7449C9.13239 49.3757 9.32428 49.0118 9.51888 48.6426C9.71618 48.2733 9.91618 47.896 10.1189 47.5106C10.5351 46.7425 10.9513 45.9366 11.4729 45.1361C11.9837 44.9771 12.3783 44.1524 13.054 43.0797C13.3486 43.36 13.9946 42.6484 14.7973 41.4895C15.1378 40.7726 14.2946 41.7509 14.6648 41.0636C15.2081 40.4464 15.7324 39.8778 16.054 39.9451C15.6216 40.5596 15.1973 41.3089 14.9135 41.5623C15.3324 41.5218 16.2243 40.0502 16.5621 40.2928C16.1783 40.875 15.8513 41.4787 15.5081 42.0636C15.1729 42.6511 14.8378 43.2333 14.5216 43.8155C13.9351 45.0094 13.3432 46.1711 12.7919 47.3462C12.527 47.9391 12.2621 48.5294 11.9973 49.1223C11.7351 49.7153 11.4378 50.292 11.1973 50.9012C10.9432 51.5022 10.681 52.1059 10.4054 52.7097C10.2648 53.0115 10.1243 53.3134 9.98374 53.6152C9.8405 53.9198 9.71888 54.2324 9.57834 54.5424C9.1405 55.1407 8.74861 55.3779 8.28645 56.1299C8.3405 56.774 9.23239 54.9602 9.60266 54.8523C9.41077 55.6474 9.06212 56.6177 8.77564 57.5799C8.50807 58.5502 8.25942 59.4962 8.15942 60.1996C8.05942 60.3371 7.96753 60.3694 7.86753 60.4719C7.77023 60.5743 7.65942 60.7441 7.56212 61.1672C5.89996 66.0833 5.64591 69.6221 5.24591 73.6164C5.18104 74.3764 5.07834 75.1257 5.02969 75.8723C4.97834 76.6189 4.92699 77.3601 4.87564 78.0985L4.78915 79.2036C4.76482 79.5728 4.76212 79.9421 4.74861 80.3113C4.72428 81.0525 4.69726 81.7937 4.67293 82.5403C4.62969 83.2868 4.67293 84.0388 4.68104 84.8015C4.69996 85.5643 4.71347 86.3351 4.74591 87.1167C4.81077 87.8983 4.88104 88.6907 4.96212 89.4993C5.00266 89.9036 5.04591 90.3105 5.08915 90.7229C5.1405 91.1353 5.21888 91.5476 5.28645 91.9654C5.29185 92.4047 4.94591 91.9411 5.11888 92.8144C5.17023 93.3211 5.23239 93.8547 5.29726 94.4046C5.36753 94.9544 5.48374 95.5123 5.57834 96.081C5.78374 97.2157 5.95672 98.3854 6.20266 99.4796C6.31347 100.029 6.41347 100.569 6.49726 101.086C6.57834 101.603 6.65401 102.099 6.72428 102.558C6.86482 103.477 6.91618 104.28 6.83239 104.892C6.97293 105.307 7.05401 105.654 7.1405 105.948C7.22428 106.242 7.27834 106.493 7.32428 106.73C7.41347 107.199 7.46212 107.603 7.60537 108.161C7.71347 108.398 7.82158 108.633 7.9351 108.881C8.0432 109.131 8.15942 109.395 8.28915 109.694C8.27834 110.023 8.48645 110.611 8.75672 111.282C8.89456 111.616 9.0432 111.975 9.19185 112.333C9.26482 112.511 9.3351 112.692 9.40807 112.867C9.48645 113.039 9.55942 113.209 9.62699 113.373C9.92699 114.107 10.1324 114.794 10.3378 115.492C10.4432 115.84 10.5351 116.195 10.6648 116.548C10.7946 116.901 10.9378 117.26 11.1027 117.637C12.2324 120.268 13.081 121.152 13.8486 122.216C14.3135 122.879 14.9351 123.675 15.5081 124.41C16.0919 125.141 16.6459 125.796 17.1378 126.081C17.0486 125.855 16.9432 125.629 16.8594 125.399C16.7783 125.168 16.7027 124.944 16.6459 124.739C16.0513 124.049 15.3567 123.338 14.6513 122.521C13.9837 121.683 13.3027 120.748 12.6864 119.656C12.3189 118.958 12.1324 118.33 11.9108 117.718C11.7 117.101 11.4405 116.503 11.0243 115.802L11.2108 115.713C10.7405 114.756 10.327 113.848 9.95942 112.98C9.60266 112.107 9.3405 111.252 9.08104 110.441C8.95401 110.034 8.83509 109.633 8.71888 109.239C8.61618 108.84 8.53239 108.444 8.4432 108.053C8.27023 107.271 8.11347 106.509 7.95672 105.751C7.45401 102.679 6.99185 99.6899 6.2378 95.6983C6.23239 95.4314 6.22428 95.17 6.21888 94.9086C6.21077 94.6498 6.21077 94.3911 6.22428 94.1323C6.2432 93.6203 6.26753 93.1189 6.29726 92.6338C6.36482 91.6635 6.41618 90.7579 6.58645 89.9197C6.60807 90.6232 6.69996 91.2 6.79455 91.7174C6.88645 92.2349 6.98645 92.6904 7.08645 93.1405C7.18374 93.5906 7.28104 94.0407 7.39185 94.5393C7.51077 95.0379 7.62699 95.5905 7.73239 96.2589C8.00807 97.0755 8.2405 97.9353 8.5405 98.8112C8.82428 99.6899 9.07564 100.604 9.34861 101.533C9.64861 102.455 9.9405 103.404 10.2216 104.369C10.3513 104.854 10.5378 105.328 10.6946 105.811C10.8567 106.293 11.0189 106.778 11.181 107.266C12.5189 111.15 14.1891 115.063 16.2 118.341C16.8486 119.613 17.4729 120.847 18.2297 121.971C18.5946 122.54 18.9648 123.1 19.3351 123.653C19.7189 124.197 20.1297 124.718 20.527 125.246C20.9351 125.769 21.3189 126.302 21.7486 126.809C22.1783 127.313 22.6081 127.82 23.0432 128.329C23.2594 128.585 23.4756 128.841 23.6919 129.097C23.9081 129.356 24.1486 129.596 24.3756 129.849C24.8378 130.351 25.3 130.863 25.7621 131.386C25.8675 131.828 26.4189 132.499 27.0783 133.248C27.4135 133.62 27.7702 134.016 28.1216 134.404C28.4756 134.792 28.8513 135.148 29.1675 135.493C29.5919 135.838 29.4621 135.296 30.1297 136.029C30.4919 136.374 30.7864 136.709 31.0621 136.994C31.3405 137.28 31.5729 137.544 31.7783 137.797C32.1864 138.299 32.4729 138.741 32.7297 139.169C32.8594 139.382 32.9783 139.592 33.1081 139.797C33.2432 139.999 33.381 140.202 33.5351 140.409C33.8459 140.824 34.2243 141.261 34.7675 141.759C34.9621 141.937 35.2594 142.15 35.5837 142.369C35.9135 142.573 36.2648 142.789 36.5513 142.997C36.9621 143.293 37.5459 143.757 38.1108 144.201C38.3891 144.43 38.6837 144.627 38.9405 144.808C39.2 144.986 39.4297 145.139 39.6054 145.244C40.2432 145.624 40.8756 145.983 41.5216 146.317C42.181 146.624 42.8378 146.929 43.5027 147.239C43.8324 147.395 44.1675 147.549 44.5027 147.708C44.8351 147.869 45.1864 148.002 45.5324 148.158C46.2243 148.462 46.927 148.789 47.6405 149.155C51.7621 151.176 56.6243 153.093 61.5 154.378C62.4756 154.715 63.6027 155.028 64.8189 155.333C66.0459 155.58 67.3675 155.812 68.7243 156.028C69.4081 156.111 70.0973 156.195 70.7918 156.279C71.4864 156.357 72.181 156.475 72.8783 156.518C73.5756 156.58 74.2675 156.648 74.9486 156.723C75.2891 156.764 75.6297 156.807 75.9648 156.847C76.3027 156.877 76.6351 156.909 76.9648 156.939C77.4837 156.896 78.0378 156.871 78.6243 156.858C79.2081 156.842 79.8216 156.858 80.4513 156.82C81.0837 156.801 81.7324 156.783 82.3919 156.764C83.0513 156.75 83.7189 156.742 84.381 156.677C85.0432 156.626 85.7054 156.575 86.3513 156.516C86.6756 156.483 86.9945 156.454 87.3108 156.421C87.6243 156.376 87.9351 156.322 88.2378 156.27C88.8432 156.163 89.4243 156.047 89.9675 155.917C90.5108 155.785 91.0216 155.659 91.4729 155.465C92.1648 155.319 91.7243 155.688 92.5675 155.478C93.127 155.292 93.7054 155.136 94.2864 154.988C94.8675 154.845 95.4324 154.659 95.9783 154.5C97.0648 154.163 98.054 153.864 98.6973 153.365C99.2864 153.176 99.6837 153.095 100 153.066C100.413 152.904 100.83 152.74 101.249 152.575C101.665 152.411 102.07 152.209 102.484 152.025C103.303 151.643 104.138 151.284 104.959 150.877C105.776 150.46 106.6 150.036 107.438 149.605C107.859 149.403 108.265 149.158 108.681 148.926C109.095 148.694 109.513 148.462 109.935 148.228C113.292 146.328 116.765 144.204 120.562 141.743C121.259 141.466 121.94 141.193 122.616 140.924C123.297 140.654 123.949 140.339 124.624 140.04C124.959 139.886 125.297 139.733 125.638 139.576C125.808 139.498 125.978 139.417 126.151 139.339C126.322 139.256 126.486 139.164 126.654 139.078C127.327 138.719 128.011 138.345 128.719 137.94C129.365 137.676 129.965 137.385 130.589 137.083C131.213 136.779 131.851 136.455 132.527 136.075C133.192 135.684 133.865 135.213 134.605 134.663C134.973 134.385 135.359 134.089 135.751 133.757C136.132 133.415 136.527 133.043 136.94 132.639C137.308 132.135 137.649 131.644 137.97 131.165C138.278 130.674 138.549 130.186 138.811 129.715C139.322 128.769 139.786 127.895 140.116 127.025C140.462 126.165 140.754 125.367 141.011 124.626C141.257 123.879 141.435 123.171 141.619 122.534C142.051 121.75 142.284 121.165 142.37 120.686C142.459 120.209 142.451 119.869 142.454 119.607C142.673 119.141 142.886 118.686 143.097 118.238C143.203 118.015 143.308 117.794 143.411 117.575C143.505 117.352 143.597 117.128 143.689 116.907C144.062 116.028 144.424 115.168 144.789 114.306C145.116 113.43 145.451 112.554 145.803 111.659C145.889 111.436 145.984 111.212 146.065 110.98C146.143 110.748 146.224 110.514 146.305 110.279C146.47 109.81 146.638 109.331 146.811 108.837C147.181 107.862 147.476 106.916 147.805 106.021C147.97 105.574 148.138 105.137 148.305 104.708C148.476 104.283 148.611 103.851 148.768 103.434C149.07 102.595 149.4 101.792 149.705 100.992C149.986 100.186 150.273 99.3934 150.562 98.5983C151.641 95.4126 152.64 92.1379 152.768 87.9981C152.862 87.645 152.992 87.486 153.054 86.9415C152.638 86.4267 153.462 83.6534 152.805 83.1898C152.562 83.8852 152.349 84.9848 152.197 86.2192C152.135 86.8364 152.027 87.486 151.951 88.1355C151.876 88.785 151.819 89.4346 151.784 90.0545C151.57 90.4534 151.449 91.0167 151.359 91.6554C151.27 92.2942 151.211 93.0084 151.07 93.6903C150.992 94.1189 150.851 94.5258 150.716 94.9193C150.578 95.3129 150.432 95.6929 150.289 96.0621C149.995 96.8006 149.738 97.5068 149.486 98.194C149.351 98.5929 149.368 99.0727 149.319 99.2236C149.14 99.7788 148.93 100.272 148.716 100.808C148.484 101.342 148.23 101.913 148.011 102.647C147.54 104.288 147.162 105.336 146.862 106.366C146.786 106.625 146.713 106.878 146.638 107.139C146.6 107.269 146.565 107.401 146.524 107.536C146.481 107.668 146.435 107.802 146.389 107.94C146.203 108.492 145.997 109.099 145.754 109.827C145.627 110.193 145.508 110.565 145.373 110.929C145.23 111.29 145.086 111.649 144.943 112.007C144.659 112.727 144.378 113.438 144.103 114.136C143.797 114.821 143.503 115.495 143.224 116.152C143.086 116.481 142.951 116.807 142.819 117.125C142.684 117.441 142.535 117.745 142.403 118.047C141.365 120.475 140.511 122.443 140.522 123.739C139.84 124.72 139.573 125.486 139.384 126.254C139.286 126.634 139.208 127.017 139.089 127.41C138.959 127.796 138.797 128.2 138.554 128.642C137.727 129.741 137.459 130.227 137.143 130.669C136.827 131.111 136.497 131.539 135.578 132.542C135.281 132.733 134.997 132.925 134.703 133.094C134.403 133.259 134.108 133.423 133.816 133.585C133.232 133.9 132.659 134.199 132.095 134.488C131.538 134.787 130.949 135.032 130.376 135.294C129.805 135.552 129.232 135.814 128.646 136.081C128.503 136.148 128.357 136.215 128.211 136.283C128.062 136.345 127.911 136.409 127.759 136.474C127.459 136.603 127.157 136.736 126.849 136.868C126.235 137.14 125.613 137.426 124.978 137.741C124.324 138.032 123.646 138.339 122.949 138.684C122.6 138.857 122.246 139.037 121.884 139.226C121.516 139.404 121.138 139.587 120.749 139.776C120.105 140.261 119.473 140.741 118.878 141.123C118.27 141.484 117.708 141.765 117.243 141.9C117.935 141.299 118.749 140.697 119.589 139.991C120.44 139.301 121.389 138.614 122.327 137.816C122.808 137.434 123.297 137.04 123.797 136.639C124.289 136.229 124.773 135.795 125.276 135.369C125.527 135.156 125.778 134.941 126.032 134.725L126.413 134.401L126.781 134.059C127.27 133.601 127.765 133.14 128.259 132.677C132.216 128.976 135.638 124.575 137.322 120.99C137.138 121.125 136.973 121.292 136.819 121.478C136.657 121.659 136.503 121.861 136.357 122.071C136.062 122.494 135.786 122.963 135.481 123.392C135.27 123.685 135.062 123.985 134.843 124.278C134.616 124.567 134.384 124.855 134.154 125.146C133.689 125.726 133.23 126.321 132.746 126.906C131.732 128.041 130.74 129.248 129.608 130.372C129.332 130.661 129.054 130.949 128.776 131.24C128.635 131.386 128.497 131.534 128.354 131.677L127.911 132.094C127.322 132.658 126.724 133.226 126.122 133.8C125.503 134.358 124.859 134.903 124.224 135.466C123.597 136.043 122.916 136.566 122.241 137.11C121.838 137.434 121.446 137.762 121.059 138.099C120.659 138.42 120.262 138.738 119.865 139.059C119.47 139.385 119.076 139.711 118.681 140.037C118.486 140.207 118.284 140.363 118.076 140.517C117.87 140.673 117.665 140.827 117.457 140.983C116.624 141.6 115.797 142.263 114.87 142.821C114.413 143.11 113.946 143.398 113.468 143.684C113.227 143.824 112.989 143.975 112.735 144.102C112.481 144.228 112.224 144.352 111.965 144.482C111.357 144.775 110.778 145.039 110.211 145.296C109.93 145.43 109.64 145.541 109.351 145.651C109.062 145.762 108.776 145.872 108.484 145.985C107.903 146.212 107.313 146.446 106.697 146.702C106.065 146.929 105.405 147.179 104.695 147.468C104.557 147.406 103.935 147.705 104.127 147.398C103.922 147.487 103.719 147.57 103.513 147.651C103.308 147.724 103.097 147.783 102.892 147.842C102.478 147.961 102.065 148.061 101.659 148.152C101.251 148.244 100.846 148.325 100.446 148.403C100.046 148.487 99.6378 148.522 99.2432 148.584C98.4459 148.697 97.6675 148.824 96.9027 149.015C96.1297 149.171 95.3675 149.384 94.6108 149.721C94.7081 149.551 95.3054 149.419 94.7864 149.398ZM152.319 72.2149C152.289 71.8807 152.419 71.9265 152.454 72.1933C152.535 72.1367 152.432 71.7028 152.386 71.3902C152.462 71.4144 152.522 71.657 152.584 71.9023C152.643 72.1475 152.681 72.3955 152.759 72.4224C152.835 71.975 152.797 71.3956 152.768 70.781C152.903 71.1422 152.97 71.4845 152.989 71.7729C153.011 72.0613 152.954 72.3038 152.889 72.4602C152.749 72.7755 152.505 72.7674 152.319 72.2149ZM149.738 54.9143C149.995 54.6718 150.497 55.4318 150.97 56.3644C151.089 56.5961 151.205 56.8414 151.313 57.0813C151.413 57.3265 151.503 57.5664 151.584 57.7928C151.746 58.2429 151.87 58.6256 151.922 58.8359C152.135 59.6849 152.3 61.1618 151.781 60.3425C151.492 59.887 151.211 58.8871 150.897 57.8117C150.754 57.2699 150.546 56.7309 150.354 56.2296C150.162 55.7229 149.954 55.2647 149.738 54.9143ZM145.681 48.3353C145.581 48.4889 145.427 48.4189 145.254 48.2518C145.162 47.8744 144.946 47.4297 144.708 46.9365C144.468 46.4433 144.189 45.9123 143.922 45.3868C143.789 45.1226 143.662 44.8612 143.535 44.6105C143.403 44.3653 143.281 44.1254 143.173 43.899C142.959 43.4489 142.811 43.0473 142.778 42.7482C143.116 43.3115 143.384 43.7777 143.619 44.2009C143.862 44.6186 144.024 45.0202 144.219 45.4137C144.408 45.8099 144.603 46.2142 144.838 46.6805C145.07 47.1521 145.368 47.6669 145.681 48.3353ZM142.03 40.2713C141.992 40.5408 141.597 39.902 141.484 39.9748C141.386 39.6001 140.919 38.9075 140.962 38.6514C141.562 39.4034 141.495 39.5786 142.03 40.2713ZM140.205 40.5435C140.005 40.2174 139.8 39.8831 139.595 39.5489C139.389 39.212 139.178 38.8697 138.943 38.5382C138.484 37.8698 138.008 37.1879 137.519 36.498C137.395 36.3255 137.276 36.1503 137.146 35.9805C137.013 35.8134 136.878 35.6463 136.746 35.4792C136.473 35.1477 136.2 34.8108 135.924 34.4739C135.643 34.1396 135.359 33.8054 135.076 33.4712C134.792 33.1343 134.47 32.8298 134.165 32.509C133.63 31.9646 133.076 31.4498 132.524 30.9512C131.962 30.4634 131.376 30.0241 130.824 29.5767C130.549 29.353 130.276 29.1319 130.008 28.9163C129.746 28.6953 129.484 28.477 129.219 28.2749C128.697 27.8598 128.216 27.4394 127.784 27.0027C130.168 28.3881 133.197 31.4337 135.135 32.7327C135.568 33.2502 135.984 33.827 136.422 34.393C136.638 34.676 136.854 34.9617 137.07 35.2447C137.286 35.5277 137.508 35.8026 137.705 36.0937C138.111 36.6624 138.513 37.2068 138.905 37.6973C139.295 38.1906 139.689 38.6191 140.027 38.9964C139.905 39.3576 140.603 40.4168 140.205 40.5435ZM140.476 37.9749C140.422 38.0154 140.365 38.0558 140.311 38.0989C139.549 37.2311 138.178 35.6732 138.416 35.3633C139.384 36.3443 139.67 36.7998 140.476 37.9749ZM138.403 35.0156C138.213 34.8916 138.086 34.8889 138.008 34.9806C137.178 34.083 137.665 34.0184 138.403 35.0156ZM139.276 33.9321C139.219 33.5117 138.389 32.8675 138.027 32.3905C137.676 31.9296 137.443 31.5145 137.216 31.1264C136.976 30.7464 136.746 30.3879 136.422 30.0187C135.824 29.3395 135.332 28.9406 134.795 28.5013C134.24 28.0754 133.63 27.6226 132.805 26.806C132.273 26.3101 132.3 26.6766 131.957 26.4691C127.846 23.0516 123.627 20.1677 119.068 17.494C114.497 14.8312 109.573 12.3758 103.827 10.1253C104.173 9.87736 105.189 10.1118 106.108 10.2682C106.57 10.3382 106.997 10.4299 107.311 10.411C107.624 10.3948 107.822 10.287 107.805 10.004C108.608 10.2843 109.384 10.57 110.135 10.853C110.881 11.1468 111.586 11.4837 112.284 11.7937C112.63 11.9527 112.973 12.109 113.313 12.2653C113.654 12.4189 113.989 12.5753 114.308 12.7505C114.957 13.0874 115.592 13.4216 116.222 13.7477C116.538 13.9094 116.849 14.0711 117.162 14.2328C117.47 14.3972 117.77 14.5751 118.076 14.7422C118.681 15.0818 119.286 15.4133 119.9 15.7341C120.519 16.044 121.116 16.3917 121.727 16.7205C122.34 17.0493 122.965 17.37 123.611 17.68C124.032 17.936 124.413 18.2352 124.8 18.5128C125.181 18.7985 125.557 19.0788 125.932 19.3564C126.303 19.6394 126.673 19.9197 127.038 20.2081C127.392 20.51 127.746 20.8118 128.105 21.1191C128.462 21.4263 128.824 21.7363 129.195 22.0516C129.565 22.367 129.943 22.685 130.313 23.0354C131.059 23.728 131.857 24.4423 132.722 25.2104C133.581 26.0378 134.435 26.8626 135.235 27.6658C136.011 28.4932 136.716 29.3152 137.33 30.078C137.484 30.2693 137.63 30.4553 137.768 30.6413C137.903 30.8299 138.024 31.0186 138.143 31.2019C138.378 31.5684 138.581 31.9161 138.749 32.2422C139.084 32.8972 139.276 33.4685 139.276 33.9321ZM125.943 18.8901C125.159 18.3565 125.381 18.2298 124.913 17.8255C124.519 17.5533 124.178 17.3161 123.87 17.1059C123.565 16.893 123.3 16.6935 123.054 16.4995C122.562 16.1141 122.149 15.7556 121.638 15.3648C121.33 15.1384 120.959 14.9147 120.551 14.6802C120.146 14.4457 119.708 14.2005 119.246 13.9471C118.786 13.6965 118.305 13.435 117.822 13.1709C117.324 12.9283 116.822 12.6831 116.324 12.4432C114.362 11.4352 112.446 10.6158 111.6 9.91779C113.224 10.818 114.589 10.6509 116.265 11.7424C116.968 11.8529 117.665 11.9985 118.4 12.2033C119.119 12.4378 119.87 12.7343 120.695 13.1197C121.108 13.3111 121.538 13.5267 121.989 13.7639C122.43 14.0199 122.892 14.3056 123.381 14.6182C123.87 14.9309 124.384 15.2732 124.927 15.6478C125.203 15.8311 125.476 16.0359 125.751 16.2569C126.03 16.4752 126.313 16.7016 126.611 16.9361C127.113 17.3377 127.584 17.7932 128.051 18.2487C128.519 18.7069 128.951 19.1974 129.424 19.6125C131.2 21.138 133.138 22.5449 133.784 23.5987C133.478 23.6445 132.97 23.41 132.351 23.0192C132.04 22.8225 131.703 22.588 131.346 22.3319C130.986 22.0759 130.624 21.7821 130.224 21.518C129.438 20.9708 128.627 20.3941 127.886 19.9062C127.522 19.6556 127.159 19.4481 126.824 19.281C126.5 19.1112 126.2 18.9764 125.943 18.8901ZM127.124 26.523C126.832 26.3936 126.619 26.24 126.365 26.0405C126.111 25.8384 125.813 25.5877 125.343 25.2805C125.478 25.1835 125.797 25.3856 126.149 25.6632C126.497 25.9435 126.884 26.2912 127.124 26.523ZM90.654 10.7237C89.7567 10.6158 88.8648 10.5215 87.9729 10.4326L87.3027 10.3652L86.6297 10.3329C86.181 10.3113 85.7297 10.2897 85.2756 10.2682C84.8216 10.2439 84.3675 10.2197 83.9081 10.1954C83.4486 10.1577 82.9864 10.1765 82.5189 10.1604C81.5837 10.1469 80.6297 10.1011 79.6486 10.0633C78.7378 10.0579 77.9324 10.031 77.1621 9.99325C76.7756 9.97439 76.4 9.95283 76.0243 9.93396C75.6486 9.93396 75.2729 9.93126 74.8919 9.93126C74.127 9.93126 73.3297 9.93935 72.4324 9.97439C71.5405 10.0364 70.5513 10.1604 69.4 10.3221C69.0621 10.3733 68.7567 10.4218 68.4594 10.5C68.1621 10.5808 67.8702 10.6698 67.554 10.7641C66.927 10.9527 66.2135 11.1603 65.1973 11.3759C64.0702 11.6535 62.954 11.8745 61.927 12.1063C61.4108 12.2141 60.9324 12.3785 60.4837 12.5456C60.0378 12.7154 59.627 12.9068 59.2648 13.1305C57.9973 13.3973 56.7756 13.7585 55.6108 14.125C55.0297 14.311 54.4621 14.5023 53.9405 14.7584C53.4135 15.0037 52.9135 15.2678 52.4513 15.5562C52.6621 15.1869 53.4621 14.5913 54.4459 13.9525C55.4486 13.3596 56.6324 12.7235 57.5675 12.1925C63.1946 10.5242 68.8973 9.42187 74.5108 9.08497C80.1162 8.74807 85.6297 9.182 90.6837 10.5215L90.654 10.7237ZM39.5027 22.5044C39.5081 22.6176 38.8432 22.9518 38.9108 23.0542C38.3243 23.3992 37.781 23.755 37.2756 24.1108C37.0216 24.2887 36.7783 24.4692 36.5405 24.6471C36.4216 24.7361 36.3054 24.825 36.1891 24.9139C36.0783 25.0083 35.9702 25.1026 35.8621 25.1969C35.0027 25.9489 34.2243 26.6658 33.4459 27.3154C32.727 27.9622 31.8567 28.4474 30.8891 29.2532C30.2621 29.8084 29.627 30.5469 29.0351 31.1453C28.7432 31.4471 28.454 31.7086 28.2054 31.9188C27.9567 32.1317 27.727 32.2719 27.5243 32.3096C27.3081 32.6438 27.0081 33.0077 26.6621 33.3877C26.4891 33.579 26.3054 33.7731 26.1162 33.9698C25.9243 34.1639 25.7324 34.3687 25.5486 34.5817C24.8054 35.4253 24.0459 36.2877 23.6081 37.0424C23.3919 36.7675 24.9297 34.5844 23.5729 35.6193C23.2135 36.2527 23.4513 36.436 23.1783 37.037C22.1567 38.363 21.3702 39.1527 20.9729 39.0638C21.2243 38.5463 21.6675 37.8267 22.2243 36.9993C22.3648 36.7944 22.5108 36.5815 22.6621 36.3605C22.8162 36.1449 22.9891 35.9347 23.1621 35.7163C23.5081 35.2824 23.8729 34.8323 24.2459 34.3849C24.9729 33.4712 25.8216 32.6384 26.581 31.873C26.9675 31.4956 27.3216 31.1264 27.6837 30.8272C28.0432 30.5227 28.3756 30.2532 28.6675 30.0295C29.9378 28.4608 31.3324 27.5579 32.9513 26.302C32.9567 26.2076 32.8567 26.2373 32.7189 26.3343C32.5837 26.4313 32.4081 26.5877 32.2432 26.7224C32.6594 26.24 33.1729 25.86 33.7108 25.5042C34.2513 25.1484 34.8243 24.8277 35.4027 24.507C35.6891 24.3426 35.9919 24.1997 36.2892 24.0515C36.5864 23.9032 36.8837 23.7496 37.1756 23.5879C37.7621 23.2699 38.3243 22.9141 38.854 22.5044C39.2756 22.2915 39.0243 22.7874 39.5027 22.5044ZM20.7729 39.9182C20.4162 40.3494 20.1513 40.5408 19.827 40.8912C19.7351 40.6809 19.9027 40.247 20.3324 39.5921C20.8864 39.0638 20.8405 39.4843 20.7729 39.9182ZM16.3946 53.1678C14.8162 56.5126 13.6513 60.1215 12.7297 63.539C12.5729 64.1535 12.4027 64.7923 12.2216 65.4445C12.1243 65.768 12.0567 66.1075 11.9783 66.4444C11.9 66.784 11.8216 67.1263 11.7432 67.4713C11.6621 67.8163 11.581 68.164 11.5 68.5144C11.4162 68.8647 11.3297 69.2178 11.2729 69.5763C11.1432 70.2932 11.0135 71.0155 10.881 71.7378C10.8216 72.1017 10.7378 72.4602 10.7 72.824C10.6567 73.1879 10.6135 73.5517 10.5702 73.9129C10.4891 74.6379 10.4081 75.3575 10.3297 76.0637C10.2946 76.7752 10.2648 77.4759 10.2459 78.1578C10.2378 78.4974 10.2297 78.8343 10.2243 79.1658C10.2216 79.3302 10.2162 79.4947 10.2216 79.6591C10.2297 79.8235 10.2378 79.9852 10.2459 80.1442C10.1946 80.6186 10.1378 81.2439 10.0864 81.9365C10.0648 82.2842 10.0405 82.6454 10.0162 83.0173C9.99726 83.3865 10.0135 83.7639 10.0162 84.1385C10.0324 84.8851 10.0675 85.6182 10.1297 86.2542C10.1783 86.8903 10.3297 87.424 10.4702 87.777C10.4919 88.2622 10.5189 88.7446 10.554 89.2244C10.5973 89.7041 10.6135 90.1866 10.7 90.6582C10.8459 91.6042 11.0108 92.5368 11.1837 93.4559C11.3756 94.3722 11.627 95.2643 11.8432 96.143C12.0459 97.027 12.327 97.876 12.5675 98.7115C12.6783 99.291 12.7919 99.8758 12.927 100.463C13.0864 101.046 13.2567 101.63 13.4297 102.221C13.5189 102.514 13.6054 102.811 13.6946 103.11C13.7837 103.407 13.8702 103.706 13.9837 104C14.1973 104.587 14.4135 105.18 14.6297 105.776C14.7378 106.075 14.8459 106.374 14.954 106.673C15.0594 106.975 15.1946 107.266 15.3135 107.563C15.5567 108.156 15.7973 108.754 16.0324 109.36C16.2513 109.969 16.5297 110.56 16.7756 111.163C17.027 111.767 17.2675 112.376 17.4973 112.996C17.9594 114.088 18.0946 115.018 18.5729 116.147C19.0297 117.106 19.754 118.187 20.2919 119.271C20.7135 120.031 21.081 120.81 21.4459 121.586L21.7216 122.168C21.8189 122.359 21.9243 122.543 22.027 122.729C22.2351 123.1 22.4486 123.467 22.6756 123.825C22.8837 124.154 23.1567 124.515 23.427 124.874C23.6973 125.232 23.9973 125.569 24.2081 125.885C24.4946 126.302 24.5405 126.669 24.7891 127.065C24.981 127.37 25.1946 127.685 25.4297 127.992C25.6756 128.289 25.9243 128.593 26.1675 128.89C26.6567 129.483 27.1189 130.06 27.4216 130.593C28.1919 131.332 28.9324 132.059 29.6621 132.795C30.4108 133.515 31.1864 134.205 31.9621 134.935C32.3432 135.307 32.7648 135.641 33.1837 135.997C33.6027 136.35 34.0297 136.709 34.4675 137.075C34.8973 137.452 35.3729 137.795 35.854 138.153C36.3351 138.512 36.8324 138.878 37.3432 139.256C36.3378 138.695 35.2729 138.115 34.3648 137.655C33.4675 137.18 32.6783 136.873 32.154 136.951C31.9054 136.741 31.6567 136.531 31.4108 136.32C31.1729 136.102 30.9378 135.884 30.7054 135.668C30.2351 135.234 29.7702 134.806 29.3081 134.377C28.8351 133.957 28.4135 133.488 27.9783 133.03C27.5459 132.569 27.1189 132.097 26.6946 131.612C26.1027 130.898 25.7432 130.386 25.2594 129.787C25.0189 129.485 24.7513 129.162 24.4135 128.771C24.0946 128.367 23.7162 127.89 23.2324 127.302C23.0135 127.038 22.7919 126.782 22.5702 126.531C22.3459 126.281 22.1216 126.036 21.9189 125.78C21.5027 125.273 21.0919 124.774 20.7135 124.257C18.7297 121.47 17.0919 118.346 15.627 115.354C15.4621 115.039 15.2946 114.724 15.1297 114.411C14.9621 114.098 14.8189 113.775 14.6621 113.462C14.354 112.832 14.0513 112.209 13.7567 111.608C13.6837 111.457 13.6135 111.306 13.5432 111.155C13.4756 111.004 13.4189 110.851 13.3594 110.7C13.2405 110.398 13.1297 110.101 13.027 109.808C12.8216 109.223 12.6486 108.657 12.527 108.118C12.4054 107.859 12.3054 107.587 12.2081 107.309C12.1108 107.032 12.0108 106.754 11.9108 106.471C11.7189 105.902 11.5216 105.323 11.3243 104.741C10.9702 103.558 10.6675 102.337 10.3297 101.145C10.054 99.9378 9.77834 98.7519 9.46753 97.6361C9.21618 96.5068 8.93509 95.4476 8.60266 94.4962C8.55401 94.0919 8.5432 93.6796 8.50266 93.2699C8.46753 92.8602 8.42158 92.4505 8.37023 92.0409C8.31888 91.6312 8.26212 91.2242 8.19996 90.8199C8.12969 90.4157 8.10537 90.0087 8.05401 89.6071C7.95401 88.8039 7.85672 88.0142 7.76212 87.2515C7.70537 86.8714 7.69455 86.4941 7.67023 86.1276C7.64861 85.761 7.63239 85.4026 7.61888 85.0549C7.77023 84.3999 7.90266 83.6938 8.06753 82.9284C8.24591 82.1629 8.41347 81.3436 8.55401 80.4622C8.67293 79.5782 8.86212 78.6403 8.98104 77.6296C9.0432 77.1256 9.09455 76.6027 9.13509 76.061C9.19185 75.5219 9.25672 74.9667 9.29996 74.3899C9.3351 73.9237 9.35401 73.4789 9.35942 73.0504C9.36212 72.8375 9.36212 72.6273 9.35672 72.4197C9.35942 72.2149 9.36212 72.0128 9.36483 71.816C9.36753 71.0263 9.32969 70.2878 9.28374 69.5709C9.26482 69.2124 9.22428 68.8567 9.22158 68.5063C9.21618 68.1559 9.21077 67.8082 9.21077 67.4605C9.21347 66.7598 9.2378 66.0536 9.32158 65.3098C9.65131 64.5605 9.8351 63.8894 9.97023 63.1859C10.0405 62.8356 10.1108 62.4798 10.1837 62.1079C10.2243 61.9219 10.2621 61.7305 10.3189 61.5392C10.3783 61.3478 10.4432 61.1511 10.5162 60.9489C10.7378 60.3371 10.9919 59.7145 11.2621 59.0677C11.4027 58.7469 11.527 58.41 11.6891 58.0812C11.8459 57.7497 12.0081 57.4128 12.1729 57.0678C12.5027 56.3751 12.8162 55.6393 13.154 54.8685C13.5108 54.1031 13.8594 53.2891 14.1891 52.4078C14.6189 53.1813 15.1081 53.4023 15.2675 54.3429C15.6108 54.1085 16.1027 53.0358 16.3946 53.1678ZM38.8054 140.323C38.9675 140.239 39.2891 140.35 39.2946 140.083C39.5324 140.331 39.8054 140.555 40.1 140.757C40.3946 140.962 40.7054 141.148 41.0378 141.293C41.6918 141.6 42.3513 141.843 42.8864 142.069C43.6864 142.584 44.4919 142.978 45.2621 143.377C46.0324 143.77 46.7729 144.155 47.5459 144.473C48.3081 144.808 49.0675 145.142 49.8513 145.487C50.6486 145.797 51.4675 146.126 52.327 146.492C52.6648 146.694 52.9405 146.883 53.2162 147.05C53.4891 147.223 53.7567 147.398 54.0729 147.578C54.6756 147.824 55.2756 148.072 55.8756 148.317C56.4837 148.538 57.0919 148.756 57.6919 148.972C57.9919 149.082 58.2918 149.19 58.5918 149.298C58.8891 149.408 59.1864 149.516 59.4891 149.602C60.0919 149.783 60.6864 149.961 61.2729 150.136C61.5919 150.228 61.9108 150.319 62.2324 150.411C62.554 150.5 62.8864 150.559 63.2135 150.632C63.8702 150.767 64.5297 150.902 65.1837 151.034C65.8351 151.182 66.4946 151.252 67.1351 151.357C67.7783 151.457 68.4081 151.559 69.0189 151.672C69.7 151.783 70.3864 151.888 71.0621 152.023C71.4 152.09 71.7378 152.155 72.0729 152.22C72.4081 152.287 72.7432 152.354 73.0756 152.389C73.7405 152.476 74.3973 152.548 75.0324 152.581C75.6675 152.613 76.2837 152.616 76.8729 152.5C78.2513 152.578 79.8946 152.786 81.4973 152.791C81.8973 152.799 82.2945 152.807 82.6837 152.815C83.0729 152.821 83.454 152.826 83.8216 152.794C84.5567 152.745 85.2351 152.675 85.8189 152.573C86.1108 152.597 86.427 152.61 86.7621 152.618C87.0973 152.629 87.4486 152.594 87.8189 152.575C88.5567 152.527 89.3513 152.454 90.1729 152.379C90.9919 152.292 91.8243 152.144 92.6486 152.042C93.0594 151.988 93.4702 151.937 93.8729 151.893C94.2729 151.84 94.6621 151.772 95.0432 151.726C95.7567 151.527 96.4351 151.327 97.0864 151.128C97.7378 150.923 98.3486 150.667 98.9486 150.443C99.5486 150.209 100.135 149.991 100.711 149.756C101.281 149.503 101.846 149.252 102.416 149.007C102.703 148.886 102.989 148.767 103.278 148.646C103.424 148.586 103.568 148.527 103.716 148.468C103.859 148.403 104.005 148.336 104.151 148.271C104.732 148.007 105.332 147.751 105.959 147.5C106.276 147.379 106.595 147.252 106.924 147.126C107.246 146.985 107.578 146.848 107.919 146.711C108.6 146.436 109.327 146.169 110.1 145.897C109.627 146.225 109.062 146.538 108.465 146.851C108.165 147.007 107.857 147.161 107.549 147.312L107.084 147.538C106.924 147.605 106.768 147.673 106.611 147.74C105.984 148.007 105.373 148.271 104.835 148.538C104.565 148.67 104.313 148.805 104.086 148.939C103.859 149.074 103.646 149.19 103.47 149.319C102.876 149.489 102.308 149.691 101.765 149.912C101.219 150.131 100.7 150.376 100.192 150.575C99.1783 150.993 98.2594 151.433 97.4486 151.74C96.7432 151.974 95.927 152.195 95.1 152.419C94.6864 152.524 94.2729 152.659 93.8621 152.745C93.4513 152.839 93.0486 152.936 92.6675 153.042C92.2027 153.168 91.7918 153.292 91.3864 153.416C91.1837 153.478 90.9837 153.54 90.781 153.602C90.5783 153.664 90.3675 153.707 90.1513 153.761C89.7162 153.864 89.2486 153.966 88.7 154.068C88.4243 154.12 88.1324 154.171 87.8108 154.222C87.4918 154.271 87.1486 154.333 86.7702 154.357C86.1702 154.403 85.5864 154.446 84.9865 154.492C84.6864 154.513 84.381 154.537 84.0675 154.559C83.754 154.583 83.4351 154.61 83.1 154.616C80.3081 154.74 77.2027 154.319 74.9756 154.176C74.3675 154.139 73.7351 154.23 73.1351 154.174C72.427 154.125 71.6594 153.912 70.8729 153.74C70.4783 153.648 70.081 153.559 69.6864 153.478C69.2891 153.403 68.8946 153.327 68.5108 153.252C68.2756 153.209 67.454 153.211 67.2027 153.157C66.8243 153.077 66.4378 152.95 66.0594 152.823C65.8702 152.761 65.681 152.699 65.4946 152.637C65.3108 152.57 65.1297 152.505 64.9513 152.451C64.3486 152.271 63.7189 152.09 63.0675 151.915C62.7405 151.829 62.4108 151.74 62.0729 151.648C61.7405 151.543 61.4027 151.438 61.0594 151.33C60.3729 151.123 59.6702 150.912 58.9567 150.697C58.2459 150.47 57.5297 150.206 56.8 149.961C56.4351 149.837 56.0702 149.713 55.7 149.586C55.3297 149.468 54.9729 149.306 54.6081 149.166C53.881 148.877 53.1486 148.589 52.4135 148.298C51.6891 147.988 50.9783 147.648 50.2648 147.325C49.9108 147.161 49.554 146.999 49.2027 146.834C48.854 146.659 48.5162 146.473 48.1756 146.295C47.0702 145.702 46.1108 145.088 45.0405 144.471C44.6783 144.271 44.281 144.088 43.8837 143.902C43.4864 143.713 43.0837 143.527 42.7378 143.285C42.027 142.808 41.4243 142.282 40.8054 141.784C40.4918 141.541 40.1864 141.28 39.8621 141.029C39.5378 140.77 39.1919 140.536 38.8054 140.323ZM95.8513 149.573C96.5216 149.425 96.3162 149.349 96.8324 149.349C97.0919 149.559 95.7216 149.872 95.8513 149.573Z" fill="#EBE2D7"/>
<path fill-rule="evenodd" clip-rule="evenodd" d="M48.5811 9.14154C49.1351 8.8801 49.4135 8.65909 49.8784 8.40844C50.2162 8.33567 50.627 8.18743 51.0703 8.00416C51.5162 7.82627 51.9865 7.59449 52.4676 7.4193C53.4243 7.05005 54.3595 6.71046 54.9297 6.72663C53.9486 7.07701 53.027 7.40582 52.1378 7.72116C51.2622 8.07423 50.4189 8.41114 49.5838 8.74804C49.1676 8.91783 48.7486 9.07416 48.3351 9.25204C47.927 9.43532 47.5162 9.62128 47.1 9.80725C46.2757 10.1873 45.4189 10.543 44.5459 10.9689C44.7622 10.6886 45.7568 10.225 46.6919 9.81264C47.6351 9.41106 48.5243 9.07416 48.5811 9.14154Z" fill="#EBE2D7"/>
<path fill-rule="evenodd" clip-rule="evenodd" d="M41.827 12.1334C42.7784 11.6672 42.6946 11.4569 43.5784 11.0068C43.3297 11.3896 42.146 12.0068 41.9568 12.3733C41.2703 12.7075 42.2595 12.0849 41.827 12.1334Z" fill="#EBE2D7"/>
<path fill-rule="evenodd" clip-rule="evenodd" d="M107.808 156.308C108.103 156.098 108.541 155.869 109.054 155.629C109.565 155.381 110.168 155.155 110.754 154.858C111.938 154.287 113.192 153.729 113.965 153.211C113.216 153.794 112.154 154.303 111.059 154.834C110.784 154.963 110.508 155.101 110.23 155.225C109.949 155.343 109.668 155.462 109.389 155.581C108.835 155.82 108.297 156.06 107.808 156.308Z" fill="#EBE2D7"/>
</svg>
